<?xml version="1.0" encoding="UTF-8"?>
<svg width="30px" height="30px" viewBox="0 0 30 30" version="1.1" xmlns="http://www.w3.org/2000/svg" xmlns:xlink="http://www.w3.org/1999/xlink">
    <title>重做</title>
    <g id="重做" stroke="none" stroke-width="1" fill="none" fill-rule="evenodd">
        <path d="M14.9609375,21.953125 C15.1848958,21.953125 15.3671875,21.8802083 15.5078125,21.734375 C15.6484375,21.5885417 15.71875,21.4114583 15.71875,21.203125 C15.71875,21 15.6484375,20.8255208 15.5078125,20.6796875 C15.3671875,20.5338542 15.1848958,20.4609375 14.9609375,20.4609375 L13.2421875,20.4609375 C12.4296875,20.4609375 11.7447917,20.3138021 11.1875,20.0195312 C10.6302083,19.7252604 10.2070312,19.3229167 9.91796875,18.8125 C9.62890625,18.3020833 9.484375,17.71875 9.484375,17.0625 C9.484375,16.4166667 9.62890625,15.84375 9.91796875,15.34375 C10.2070312,14.84375 10.6302083,14.453125 11.1875,14.171875 C11.7447917,13.890625 12.4296875,13.75 13.2421875,13.75 L18.1015625,13.75 L19.8221875,13.6725625 L18.4765625,14.8125 L16.4921875,16.7578125 C16.4192708,16.8203125 16.3645833,16.8945312 16.328125,16.9804688 C16.2916667,17.0664062 16.2734375,17.1640625 16.2734375,17.2734375 C16.2734375,17.4869792 16.3411458,17.6627604 16.4765625,17.8007812 C16.6119792,17.9388021 16.7890625,18.0078125 17.0078125,18.0078125 C17.2161458,18.0078125 17.3984375,17.9296875 17.5546875,17.7734375 L21.8359375,13.5546875 C21.9140625,13.4817708 21.9739583,13.3971354 22.015625,13.3007812 C22.0572917,13.2044271 22.078125,13.1041667 22.078125,13 C22.078125,12.9010417 22.0572917,12.8033854 22.015625,12.7070312 C21.9739583,12.6106771 21.9140625,12.5234375 21.8359375,12.4453125 L17.5546875,8.2265625 C17.3984375,8.07552083 17.2161458,8 17.0078125,8 C16.7890625,8 16.6119792,8.06901042 16.4765625,8.20703125 C16.3411458,8.34505208 16.2734375,8.51822917 16.2734375,8.7265625 C16.2734375,8.84114583 16.2916667,8.94010417 16.328125,9.0234375 C16.3645833,9.10677083 16.4192708,9.1796875 16.4921875,9.2421875 L18.4765625,11.1875 L19.8181875,12.3305625 L18.1015625,12.2578125 L13.3203125,12.2578125 C12.1953125,12.2578125 11.2369792,12.4635417 10.4453125,12.875 C9.65364583,13.2864583 9.04817708,13.8580729 8.62890625,14.5898438 C8.20963542,15.3216146 8,16.1692708 8,17.1328125 C8,18.1015625 8.20442708,18.9479167 8.61328125,19.671875 C9.02213542,20.3958333 9.61588542,20.9570312 10.3945312,21.3554688 C11.1731771,21.7539062 12.1119792,21.953125 13.2109375,21.953125 L14.9609375,21.953125 Z" fill="#333333" fill-rule="nonzero"></path>
    </g>
</svg>