<?xml version="1.0" encoding="UTF-8"?>
<svg width="24px" height="24px" viewBox="0 0 24 24" version="1.1" xmlns="http://www.w3.org/2000/svg" xmlns:xlink="http://www.w3.org/1999/xlink">
    <title>撤销</title>
    <g id="撤销" stroke="none" stroke-width="1" fill="none" fill-rule="evenodd">
        <path d="M13.8671875,18.953125 C14.9661458,18.953125 15.9049479,18.7539062 16.6835938,18.3554688 C17.4622396,17.9570312 18.0559896,17.3958333 18.4648438,16.671875 C18.8736979,15.9479167 19.078125,15.1015625 19.078125,14.1328125 C19.078125,13.1692708 18.8684896,12.3216146 18.4492188,11.5898438 C18.0299479,10.8580729 17.4244792,10.2864583 16.6328125,9.875 C15.8411458,9.46354167 14.8828125,9.2578125 13.7578125,9.2578125 L8.9765625,9.2578125 L7.2591875,9.3305625 L8.6015625,8.1875 L10.5859375,6.2421875 C10.6588542,6.1796875 10.7135417,6.10677083 10.75,6.0234375 C10.7864583,5.94010417 10.8046875,5.84114583 10.8046875,5.7265625 C10.8046875,5.51822917 10.7382812,5.34505208 10.6054688,5.20703125 C10.4726562,5.06901042 10.2942708,5 10.0703125,5 C9.8671875,5 9.68489583,5.07552083 9.5234375,5.2265625 L5.2421875,9.4453125 C5.1640625,9.5234375 5.10416667,9.61067708 5.0625,9.70703125 C5.02083333,9.80338542 5,9.90104167 5,10 C5,10.1041667 5.02083333,10.2044271 5.0625,10.3007812 C5.10416667,10.3971354 5.1640625,10.4817708 5.2421875,10.5546875 L9.5234375,14.7734375 C9.68489583,14.9296875 9.8671875,15.0078125 10.0703125,15.0078125 C10.2942708,15.0078125 10.4726562,14.9388021 10.6054688,14.8007812 C10.7382812,14.6627604 10.8046875,14.4869792 10.8046875,14.2734375 C10.8046875,14.1640625 10.7864583,14.0664062 10.75,13.9804688 C10.7135417,13.8945312 10.6588542,13.8203125 10.5859375,13.7578125 L8.6015625,11.8125 L7.2551875,10.6725625 L8.9765625,10.75 L13.8359375,10.75 C14.6484375,10.75 15.3333333,10.890625 15.890625,11.171875 C16.4479167,11.453125 16.8710938,11.84375 17.1601562,12.34375 C17.4492188,12.84375 17.59375,13.4166667 17.59375,14.0625 C17.59375,14.71875 17.4492188,15.3020833 17.1601562,15.8125 C16.8710938,16.3229167 16.4479167,16.7252604 15.890625,17.0195312 C15.3333333,17.3138021 14.6484375,17.4609375 13.8359375,17.4609375 L12.1171875,17.4609375 C11.8932292,17.4609375 11.7109375,17.5338542 11.5703125,17.6796875 C11.4296875,17.8255208 11.359375,18 11.359375,18.203125 C11.359375,18.4114583 11.4296875,18.5885417 11.5703125,18.734375 C11.7109375,18.8802083 11.8932292,18.953125 12.1171875,18.953125 L13.8671875,18.953125 Z" fill="#333333" fill-rule="nonzero"></path>
    </g>
</svg>